<svg width="15" height="11" viewBox="0 0 15 11" fill="none" xmlns="http://www.w3.org/2000/svg">
<path fill-rule="evenodd" clip-rule="evenodd" d="M4.57324 5.50014C4.57324 6.90014 5.883 8.03923 7.50007 8.03923C9.10983 8.03923 10.4196 6.90014 10.4196 5.50014C10.4196 4.09377 9.10983 2.95468 7.50007 2.95468C5.883 2.95468 4.57324 4.09377 4.57324 5.50014ZM11.8024 1.59273C13.0829 2.45818 14.1732 3.72455 14.9561 5.30909C15.0146 5.43 15.0146 5.57 14.9561 5.68455C13.3902 8.85364 10.6024 10.75 7.5 10.75H7.49268C4.39756 10.75 1.60976 8.85364 0.0439024 5.68455C-0.0146341 5.57 -0.0146341 5.43 0.0439024 5.30909C1.60976 2.14 4.39756 0.25 7.49268 0.25H7.5C9.05122 0.25 10.522 0.720909 11.8024 1.59273ZM7.50114 7.08302C8.50358 7.08302 9.32309 6.37029 9.32309 5.49847C9.32309 4.62029 8.50358 3.90756 7.50114 3.90756C7.41334 3.90756 7.32553 3.91393 7.24505 3.92665C7.21578 4.62665 6.55724 5.18665 5.74505 5.18665H5.70846C5.68651 5.28847 5.67188 5.39029 5.67188 5.49847C5.67188 6.37029 6.49139 7.08302 7.50114 7.08302Z" fill="#222230"/>
</svg>
